<?xml version="1.0" encoding="utf-8"?>
<!-- Generator: Adobe Illustrator 26.3.1, SVG Export Plug-In . SVG Version: 6.00 Build 0)  -->
<svg version="1.1" id="圖層_1" xmlns="http://www.w3.org/2000/svg" xmlns:xlink="http://www.w3.org/1999/xlink" x="0px" y="0px"
	 viewBox="0 0 20 20" style="enable-background:new 0 0 20 20;" xml:space="preserve">
<style type="text/css">
	.st0{fill:#B3B3B3;}
	.st1{fill-rule:evenodd;clip-rule:evenodd;fill:#B3B3B3;}
</style>
<g id="Page-1">
	<g id="Artboard" transform="translate(-336.000000, -249.000000)">
		<g id="icon-_x2F_-feeling-_x2F_-line-_x2F_-happy" transform="translate(334.000000, 247.000000)">
			<g id="icon" transform="translate(2.000000, 2.000000)">
				<g id="Oval">
					<path class="st0" d="M10,19c-5,0-9-4-9-9c0-5,4-9,9-9c5,0,9,4,9,9C19,15,15,19,10,19z M10,2c-4.4,0-8,3.6-8,8s3.6,8,8,8
						s8-3.6,8-8S14.4,2,10,2z"/>
				</g>
				<g id="face" transform="translate(5.500000, 7.000000)">
					<g id="Path">
						<path class="st1" d="M1.6,2.3c-0.3,0-0.6,0-0.8-0.2S0.5,1.7,0.5,1.4s0.1-0.6,0.3-0.8s0.5-0.3,0.8-0.3s0.6,0.1,0.8,0.3
							s0.3,0.5,0.3,0.8S2.6,1.9,2.4,2.1S1.9,2.3,1.6,2.3z"/>
					</g>
					<g id="Path_00000125589875636349365040000005877374489275306927_">
						<path class="st1" d="M7.4,2.3c-0.3,0-0.6,0-0.8-0.2C6.4,1.9,6.3,1.7,6.3,1.4s0.1-0.6,0.3-0.8c0.2-0.2,0.5-0.3,0.8-0.3
							S8,0.4,8.2,0.6s0.3,0.5,0.3,0.8S8.4,1.9,8.2,2.1S7.7,2.3,7.4,2.3z"/>
					</g>
					<g id="Path-10">
						<path class="st0" d="M4.5,7.9C1.9,7.9,0.3,6.7,0,4.6c0-0.4,0.3-0.8,0.7-0.8v0.5l0-0.5C2,3.7,3.3,3.6,4.5,3.6
							c1.2,0,2.7,0.1,3.8,0.2c0,0,0,0,0,0C8.7,3.8,9,4.1,9,4.5l0,0.1C8.7,6.1,7.6,7.9,4.5,7.9z M1.1,4.8c0.3,1.4,1.5,2.1,3.4,2.1
							c1.9,0,3-0.7,3.4-2.1C6.8,4.7,5.6,4.6,4.5,4.6C3.4,4.6,2.2,4.7,1.1,4.8z M8.2,4.8C8.3,4.8,8.3,4.8,8.2,4.8
							C8.3,4.8,8.3,4.8,8.2,4.8z M0.7,4.8L0.7,4.8C0.7,4.8,0.7,4.8,0.7,4.8z M0.7,3.8l0,0.5L0.7,3.8z"/>
					</g>
				</g>
			</g>
		</g>
	</g>
</g>
</svg>
