<?xml version="1.0" encoding="utf-8"?>
<!-- Generator: Adobe Illustrator 26.3.1, SVG Export Plug-In . SVG Version: 6.00 Build 0)  -->
<svg version="1.1" id="圖層_1" xmlns="http://www.w3.org/2000/svg" xmlns:xlink="http://www.w3.org/1999/xlink" x="0px" y="0px"
	 viewBox="0 0 20 20" style="enable-background:new 0 0 20 20;" xml:space="preserve">
<style type="text/css">
	.st0{fill:#FFC95C;}
	.st1{fill:#23569D;}
</style>
<circle class="st0" cx="10" cy="10" r="9.5"/>
<g id="Page-1">
	<g id="Artboard" transform="translate(-306.000000, -249.000000)">
		<g id="icon-_x2F_-feeling-_x2F_-line-_x2F_-very-happy" transform="translate(304.000000, 247.000000)">
			<g id="icon" transform="translate(2.000000, 2.000000)">
				<g id="Oval">
					<path class="st1" d="M10,19c-5,0-9-4-9-9c0-5,4-9,9-9c5,0,9,4,9,9C19,15,15,19,10,19z M10,2c-4.4,0-8,3.6-8,8s3.6,8,8,8
						s8-3.6,8-8S14.4,2,10,2z"/>
				</g>
				<g id="face" transform="translate(4.210526, 5.789474)">
					<g id="Path-10">
						<path class="st1" d="M5.8,9.1c-2.4,0-4-1.1-4.4-3L1.3,5.8C1.2,5.4,1.6,5.1,1.8,5.1L2,5c1.3-0.1,2.6-0.2,3.8-0.2
							c1.3,0,2.7,0.1,3.8,0.2c0,0,0,0,0,0c0.3,0,0.7,0.3,0.7,0.7l0,0.1C10,7.3,8.9,9.1,5.8,9.1z M2.4,6c0.4,1.4,1.5,2.1,3.4,2.1
							c1.9,0,3-0.7,3.4-2.1C8.1,5.9,6.9,5.8,5.8,5.8C4.7,5.8,3.5,5.9,2.4,6z M9.5,6C9.6,6,9.6,6,9.5,6C9.6,6,9.6,6,9.5,6z"/>
					</g>
					<g id="Path-44">
						<path class="st1" d="M3.9,2.9c-0.2,0-0.4-0.1-0.5-0.3c-0.3-1-0.6-1-0.8-1s-0.5,0-0.8,1C1.7,2.8,1.4,3,1.1,2.9
							C0.9,2.8,0.7,2.5,0.8,2.2C1,1.8,1.4,0.6,2.6,0.6s1.6,1.2,1.8,1.6c0.1,0.3-0.1,0.5-0.3,0.6C4,2.9,4,2.9,3.9,2.9z"/>
					</g>
					<g id="Path-44_00000134234729977122519040000005103704463549752735_">
						<path class="st1" d="M10.2,2.9c-0.2,0-0.4-0.1-0.5-0.3c-0.3-1-0.6-1-0.8-1s-0.5,0-0.8,1C8,2.8,7.7,3,7.4,2.9
							C7.2,2.8,7,2.5,7.1,2.2c0.1-0.4,0.5-1.6,1.8-1.6s1.6,1.2,1.8,1.6c0.1,0.3-0.1,0.5-0.3,0.6C10.3,2.9,10.3,2.9,10.2,2.9z"/>
					</g>
				</g>
			</g>
		</g>
	</g>
</g>
</svg>
