<?xml version="1.0" encoding="UTF-8"?>
<svg width="24px" height="24px" viewBox="0 0 24 24" version="1.1" xmlns="http://www.w3.org/2000/svg" xmlns:xlink="http://www.w3.org/1999/xlink">
    <title>icon / feeling / line / wow</title>
    <defs>
        <path d="M10,20 C15.5228475,20 20,15.5228475 20,10 C20,4.4771525 15.5228475,0 10,0 C4.4771525,0 0,4.4771525 0,10 C0,15.5228475 4.4771525,20 10,20 Z" id="path-1"></path>
        <mask id="mask-2" maskContentUnits="userSpaceOnUse" maskUnits="objectBoundingBox" x="0" y="0" width="20" height="20" fill="white">
            <use xlink:href="#path-1"></use>
        </mask>
    </defs>
    <g id="icon-/-feeling-/-line-/-wow" stroke="none" stroke-width="1" fill="none" fill-rule="evenodd">
        <circle id="Oval" fill="#FFFFFF" cx="12" cy="12" r="10.5"></circle>
        <g id="icon" transform="translate(2.000000, 2.000000)">
            <use id="Oval" stroke="#6B7489" mask="url(#mask-2)" stroke-width="2" stroke-linejoin="round" stroke-dasharray="2,1" xlink:href="#path-1"></use>
            <path d="M6.88484252,9.375 C6.53051004,9.375 6.23195659,9.25130332 5.98917323,9.00390625 C5.74638986,8.75650918 5.625,8.46354336 5.625,8.125 C5.625,7.78645664 5.74638986,7.49349082 5.98917323,7.24609375 C6.23195659,6.99869668 6.53051004,6.875 6.88484252,6.875 C7.22605157,6.875 7.51804341,6.99869668 7.76082677,7.24609375 C8.00361014,7.49349082 8.125,7.78645664 8.125,8.125 C8.125,8.46354336 8.00361014,8.75650918 7.76082677,9.00390625 C7.51804341,9.25130332 7.22605157,9.375 6.88484252,9.375 Z" id="Path" fill="#6B7489"></path>
            <path d="M13.1348425,9.375 C12.78051,9.375 12.4819566,9.25130332 12.2391732,9.00390625 C11.9963899,8.75650918 11.875,8.46354336 11.875,8.125 C11.875,7.78645664 11.9963899,7.49349082 12.2391732,7.24609375 C12.4819566,6.99869668 12.78051,6.875 13.1348425,6.875 C13.4760516,6.875 13.7680434,6.99869668 14.0108268,7.24609375 C14.2536101,7.49349082 14.375,7.78645664 14.375,8.125 C14.375,8.46354336 14.2536101,8.75650918 14.0108268,9.00390625 C13.7680434,9.25130332 13.4760516,9.375 13.1348425,9.375 Z" id="Path" fill="#6B7489"></path>
            <path d="M10.0020454,11.5 C10.4250563,11.5 10.7777428,11.7194582 11.0532265,12.09375 C11.3474942,12.4935631 11.4902344,12.9677053 11.4902344,13.5 C11.4902344,14.0322947 11.3474942,14.5064369 11.0532265,14.90625 C10.7777428,15.2805418 10.4250563,15.5 10.0020454,15.5 C9.56751958,15.5 9.20502926,15.2836712 8.92724225,14.90625 C8.63297452,14.5064369 8.49023438,14.0322947 8.49023438,13.5 C8.49023437,12.9677053 8.63297452,12.4935631 8.92724225,12.09375 C9.20502926,11.7163288 9.56751958,11.5 10.0020454,11.5 Z" id="Path" stroke="#6B7489" fill-rule="nonzero"></path>
        </g>
    </g>
</svg>