<?xml version="1.0" encoding="UTF-8"?>
<svg width="24px" height="24px" viewBox="0 0 24 24" version="1.1" xmlns="http://www.w3.org/2000/svg" xmlns:xlink="http://www.w3.org/1999/xlink">
    <title>icon / feeling / line / unhappy</title>
    <g id="icon-/-feeling-/-line-/-unhappy" stroke="none" stroke-width="1" fill="none" fill-rule="evenodd">
        <g id="icon" transform="translate(2.000000, 2.000000)">
            <circle id="Oval" stroke="#F39100" cx="10" cy="10" r="9.5"></circle>
            <g id="face" transform="translate(5.000000, 6.500000)">
                <path d="M1.88484252,2.875 C1.53051004,2.875 1.23195659,2.75130332 0.989173228,2.50390625 C0.746389862,2.25650918 0.625,1.96354336 0.625,1.625 C0.625,1.28645664 0.746389862,0.99349082 0.989173228,0.74609375 C1.23195659,0.49869668 1.53051004,0.375 1.88484252,0.375 C2.22605157,0.375 2.51804341,0.49869668 2.76082677,0.74609375 C3.00361014,0.99349082 3.125,1.28645664 3.125,1.625 C3.125,1.96354336 3.00361014,2.25650918 2.76082677,2.50390625 C2.51804341,2.75130332 2.22605157,2.875 1.88484252,2.875 Z" id="Path" fill="#F39100"></path>
                <path d="M8.13484252,2.875 C7.78051004,2.875 7.48195659,2.75130332 7.23917323,2.50390625 C6.99638986,2.25650918 6.875,1.96354336 6.875,1.625 C6.875,1.28645664 6.99638986,0.99349082 7.23917323,0.74609375 C7.48195659,0.49869668 7.78051004,0.375 8.13484252,0.375 C8.47605157,0.375 8.76804341,0.49869668 9.01082677,0.74609375 C9.25361014,0.99349082 9.375,1.28645664 9.375,1.625 C9.375,1.96354336 9.25361014,2.25650918 9.01082677,2.50390625 C8.76804341,2.75130332 8.47605157,2.875 8.13484252,2.875 Z" id="Path" fill="#F39100"></path>
                <path d="M1,5.5 C1,6.5 2.790861,8 5,8 C7.209139,8 9,6.5 9,5.5" id="Path" stroke="#F39100" stroke-linecap="round" stroke-linejoin="round" transform="translate(5.000000, 6.750000) scale(1, -1) translate(-5.000000, -6.750000) "></path>
            </g>
        </g>
    </g>
</svg>