<?xml version="1.0" encoding="utf-8"?>
<!-- Generator: Adobe Illustrator 26.3.1, SVG Export Plug-In . SVG Version: 6.00 Build 0)  -->
<svg version="1.1" id="圖層_1" xmlns="http://www.w3.org/2000/svg" xmlns:xlink="http://www.w3.org/1999/xlink" x="0px" y="0px"
	 viewBox="0 0 20 20" style="enable-background:new 0 0 20 20;" xml:space="preserve">
<style type="text/css">
	.st0{fill:#B3B3B3;}
</style>
<g id="Page-1">
	<g id="Artboard" transform="translate(-426.000000, -249.000000)">
		<g id="icon-_x2F_-feeling-_x2F_-line-_x2F_-bad" transform="translate(424.000000, 247.000000)">
			<g id="icon" transform="translate(2.000000, 2.000000)">
				<g id="Oval">
					<path class="st0" d="M10,19c-5,0-9-4-9-9c0-5,4-9,9-9c5,0,9,4,9,9C19,15,15,19,10,19z M10,2c-4.4,0-8,3.6-8,8s3.6,8,8,8
						s8-3.6,8-8S14.4,2,10,2z"/>
				</g>
				<g id="face" transform="translate(4.499890, 7.499890)">
					<g id="Path">
						<path class="st0" d="M9.1,7C8.8,7,8.6,6.8,8.6,6.5c0-0.6-1.3-1.7-3.1-1.7S2.4,5.9,2.4,6.5C2.4,6.8,2.2,7,1.9,7
							S1.4,6.8,1.4,6.5c0-1.2,1.8-2.7,4.1-2.7c2.3,0,4.1,1.5,4.1,2.7C9.6,6.8,9.4,7,9.1,7z"/>
					</g>
					<g id="Path-53">
						<path class="st0" d="M1,2.8c-0.2,0-0.4-0.1-0.5-0.3C0.4,2.2,0.6,1.9,0.8,1.8l1.3-0.4L0.8,1C0.6,0.9,0.4,0.6,0.5,0.3
							C0.6,0.1,0.9-0.1,1.2,0l2.7,0.9C4.1,1,4.2,1.2,4.2,1.4S4.1,1.8,3.9,1.9L1.2,2.8C1.1,2.8,1.1,2.8,1,2.8z"/>
					</g>
					<g id="Path-53_00000125564250594520307880000012367539855760292488_">
						<path class="st0" d="M10,2.8c-0.1,0-0.1,0-0.2,0L7.1,1.9C6.9,1.8,6.8,1.6,6.8,1.4S6.9,1,7.1,0.9L9.8,0
							c0.3-0.1,0.5,0.1,0.6,0.3c0.1,0.3-0.1,0.5-0.3,0.6L8.9,1.4l1.3,0.4c0.3,0.1,0.4,0.4,0.3,0.6C10.4,2.7,10.2,2.8,10,2.8z"/>
					</g>
				</g>
			</g>
		</g>
	</g>
</g>
</svg>
