<?xml version="1.0" encoding="utf-8"?>
<!-- Generator: Adobe Illustrator 26.3.1, SVG Export Plug-In . SVG Version: 6.00 Build 0)  -->
<svg version="1.1" id="圖層_1" xmlns="http://www.w3.org/2000/svg" xmlns:xlink="http://www.w3.org/1999/xlink" x="0px" y="0px"
	 viewBox="0 0 20 20" style="enable-background:new 0 0 20 20;" xml:space="preserve">
<style type="text/css">
	.st0{fill:#B3B3B3;}
	.st1{fill-rule:evenodd;clip-rule:evenodd;fill:#B3B3B3;}
</style>
<g id="Page-1">
	<g id="Artboard" transform="translate(-366.000000, -249.000000)">
		<g id="icon-_x2F_-feeling-_x2F_-line-_x2F_-soso" transform="translate(364.000000, 247.000000)">
			<g id="icon" transform="translate(2.000000, 2.000000)">
				<g id="Oval">
					<path class="st0" d="M10,19c-5,0-9-4-9-9c0-5,4-9,9-9c5,0,9,4,9,9C19,15,15,19,10,19z M10,2c-4.4,0-8,3.6-8,8s3.6,8,8,8
						s8-3.6,8-8S14.4,2,10,2z"/>
				</g>
				<g id="face" transform="translate(5.625000, 6.875000)">
					<g id="Path">
						<path class="st1" d="M1.6,2.6C1.3,2.6,1,2.5,0.8,2.2C0.6,2,0.5,1.8,0.5,1.4s0.1-0.6,0.3-0.8s0.5-0.3,0.8-0.3s0.6,0.1,0.8,0.3
							s0.3,0.5,0.3,0.8S2.6,2,2.4,2.2C2.2,2.5,1.9,2.6,1.6,2.6z"/>
					</g>
					<g id="Path_00000170966914222629802680000002530892697027769512_">
						<path class="st1" d="M7.2,2.6c-0.3,0-0.6-0.1-0.8-0.3C6.2,2,6.1,1.8,6.1,1.4s0.1-0.6,0.3-0.8c0.2-0.2,0.5-0.3,0.8-0.3
							S7.8,0.4,8,0.6s0.3,0.5,0.3,0.8S8.2,2,8,2.2C7.7,2.5,7.5,2.6,7.2,2.6z"/>
					</g>
					<g id="Path-54">
						<path class="st0" d="M7.1,6.3H1.7c-0.3,0-0.5-0.2-0.5-0.5s0.2-0.5,0.5-0.5h5.4c0.3,0,0.5,0.2,0.5,0.5S7.4,6.3,7.1,6.3z"/>
					</g>
				</g>
			</g>
		</g>
	</g>
</g>
</svg>
