<?xml version="1.0" encoding="utf-8"?>
<!-- Generator: Adobe Illustrator 26.3.1, SVG Export Plug-In . SVG Version: 6.00 Build 0)  -->
<svg version="1.1" id="圖層_1" xmlns="http://www.w3.org/2000/svg" xmlns:xlink="http://www.w3.org/1999/xlink" x="0px" y="0px"
	 viewBox="0 0 20 20" style="enable-background:new 0 0 20 20;" xml:space="preserve">
<style type="text/css">
	.st0{fill:#B3B3B3;}
	.st1{fill-rule:evenodd;clip-rule:evenodd;fill:#B3B3B3;}
</style>
<g id="Page-1">
	<g id="Artboard" transform="translate(-396.000000, -249.000000)">
		<g id="icon-_x2F_-feeling-_x2F_-line-_x2F_-unhappy" transform="translate(394.000000, 247.000000)">
			<g id="icon" transform="translate(2.000000, 2.000000)">
				<g id="Oval">
					<path class="st0" d="M10,19c-5,0-9-4-9-9c0-5,4-9,9-9c5,0,9,4,9,9C19,15,15,19,10,19z M10,2c-4.4,0-8,3.6-8,8s3.6,8,8,8
						s8-3.6,8-8S14.4,2,10,2z"/>
				</g>
				<g id="face" transform="translate(5.000000, 6.500000)">
					<g id="Path">
						<path class="st1" d="M2.2,2.9c-0.3,0-0.6-0.1-0.8-0.3S1.1,2.1,1.1,1.8S1.2,1.3,1.4,1s0.5-0.3,0.8-0.3S2.8,0.8,3,1
							s0.3,0.5,0.3,0.8S3.2,2.4,3,2.6C2.8,2.8,2.5,2.9,2.2,2.9z"/>
					</g>
					<g id="Path_00000093158321320246746210000009949205825644175250_">
						<path class="st1" d="M7.8,2.9C7.5,2.9,7.2,2.8,7,2.6C6.8,2.4,6.7,2.1,6.7,1.8S6.8,1.3,7,1c0.2-0.2,0.5-0.3,0.8-0.3
							S8.4,0.8,8.6,1s0.3,0.5,0.3,0.8S8.8,2.4,8.6,2.6C8.4,2.8,8.1,2.9,7.8,2.9z"/>
					</g>
					<g id="Path_00000020385139630188828990000016727183130097378995_">
						<path class="st0" d="M8.6,8C8.3,8,8.1,7.8,8.1,7.5c0-0.6-1.3-1.7-3.1-1.7S1.9,6.9,1.9,7.5C1.9,7.8,1.7,8,1.4,8
							S0.9,7.8,0.9,7.5c0-1.2,1.8-2.7,4.1-2.7c2.3,0,4.1,1.5,4.1,2.7C9.1,7.8,8.9,8,8.6,8z"/>
					</g>
				</g>
			</g>
		</g>
	</g>
</g>
</svg>
